 <svg
  xmlns="http://www.w3.org/2000/svg"
  fill="currentColor"
  stroke="currentColor"
  viewBox="0 0 144.66 154.7"
  width="1rem"
  height="1rem"
  ><g
    ><g
      ><path
        d="M120.74,59.18l21.19-41.27,2.73,1.31C139,31.1,135.15,44.54,127.07,54.48,117,66.83,114,80.29,111.55,95a405.16,405.16,0,0,1-10.18,44.56c-4,14.09-9.83,17.14-22.21,14.06-9.6-2.38-15.42-11.43-12-23.13,3.27-11.19,7.06-23.83,14.78-31.8,18.41-19,18.15-42.76,20.16-67C97,38.38,91.94,45.2,86.67,51.82s-12,14.16-19.92,8.5c-5-3.6-6.28-13.2-7.93-20.41-.87-3.8,1-8.24,1.71-12.63-1.53-.64-2.68-1.61-3.67-1.47C43.92,27.67,30.36,49.13,33,61.39c1.41,6.67,10.77,15-.94,20.79-6.53,3.22-10.2-.72-16.13-15.77L1.3,77.93c-.52-2-1-3.11-.83-3.28C15.3,63.35,13.83,49.5,7.67,34.23,4.23,25.69,2.46,16.48,0,7.81c11-7.89,16.43-3.75,19.39,7.4C21.88,24.59,25,33.8,28.45,45.08c5.7-6.42,10.31-11.81,15.16-17,2.28-2.42,5-6.28,7.54-6.27,9.71.07,11.56-5.44,12.91-13.45,1.87-11.22,10.08-8.44,18.2-7-2.62,16.92-5.13,33.21-7.65,49.5l5,2.14q8-10.71,15.92-21.41c2.79-3.75,4.87-8.54,8.53-11s9.19-3.89,13.13-2.85c2.19.59,4.17,7.24,3.87,11-.76,9.58-2.85,19.05-4.4,28.57ZM95.85,94l-3.8-1.27c-10.8,13-21.86,26-20.88,44.72.16,3.12,3.59,6.06,5.51,9.08,2.56-2.23,6.64-4,7.43-6.75C88.47,124.6,92,109.23,95.85,94Z"
      ></path>
    </g>
  </g>
</svg>
