<svg
    width="45px"
    height="50px"
    fill="#fff"
    xmlns="http://www.w3.org/2000/svg" xmlns:xlink="http://www.w3.org/1999/xlink" aria-hidden="true" role="img"
  >
  >
    <path
      d="M0.26 2.67L0.26 2.67Q0.07 2.47 0.13 2.21 0.2 1.95 0.33 1.76L0.33 1.76Q0.46 1.43 1.14 0.72 1.82 0 3.19-1.43L3.19-1.43Q3.77-2.02 4.42-2.73L4.42-2.73Q3.71-5.92 2.76-9.17 1.82-12.42 1.1-14.82L1.1-14.82Q0.65-16.25 0.39-17.09 0.13-17.94 0.2-18L0.2-18Q1.17-18.33 1.95-18.59L1.95-18.59Q2.93-19.05 3.58-19.08 4.23-19.11 4.75-18.33 5.27-17.55 5.85-15.54L5.85-15.54Q6.04-15.15 6.63-13.07L6.63-13.07Q7.28-10.6 8.52-6.7L8.52-6.7 14.3-13.46Q14.76-13.65 15.21-13.71 15.67-13.78 16.12-13.78L16.12-13.78Q16.64-13.71 17.13-13.78 17.62-13.85 18.07-14.17 18.53-14.5 18.91-15.15L18.91-15.15Q18.91-15.21 18.98-15.21L18.98-15.21Q19.05-15.41 19.18-15.5 19.3-15.6 19.57-15.6L19.57-15.6Q20.02-15.54 20.18-15.28 20.35-15.02 20.21-14.82L20.21-14.82Q19.57-13.71 18.88-13.23 18.2-12.74 17.52-12.64 16.84-12.54 16.25-12.54L16.25-12.54Q15.79-12.54 15.44-12.51 15.08-12.48 14.88-12.22L14.88-12.22Q13.78-10.92 11.96-8.71L11.96-8.71Q10.14-6.5 9.04-5.2L9.04-5.2Q9.49-3.51 10.01-1.89L10.01-1.89Q10.4-0.65 10.69 0.42 10.99 1.5 11.08 2.27 11.18 3.06 10.92 3.45L10.92 3.45Q10.46 4.03 9.65 4.19 8.84 4.36 7.96 4.19 7.08 4.03 6.44 3.64L6.44 3.64Q6.24 3.06 6.04 2.54L6.04 2.54Q5.85 1.82 5.56 0.98 5.27 0.13 5-1.1L5-1.1Q3.9 0.13 3.12 0.91 2.34 1.69 1.82 2.15L1.82 2.15Q1.56 2.41 1.3 2.67L1.3 2.67Q0.78 3.12 0.26 2.67ZM21.06 21.52L21.06 21.52Q21.32 22.04 21.74 22.39 22.17 22.75 22.49 22.95 22.82 23.14 22.95 23.21L22.95 23.21Q24.18 23.21 25.48 18.75 26.78 14.3 28.02 5.79L28.02 5.79Q26.33 7.54 24.73 9.72 23.14 11.89 21.97 14.37L21.97 14.37Q21.45 15.47 21.09 16.71 20.74 17.94 20.67 19.14 20.61 20.35 21.06 21.52ZM33.93-2.15L33.93-2.15Q35.62-3.71 36.79-5.4 37.96-7.08 38.67-8.71 39.39-10.34 39.81-11.7 40.23-13.07 40.43-14.04L40.43-14.04Q40.56-14.5 40.63-14.82L40.63-14.82Q40.76-15.15 40.92-15.24 41.08-15.34 41.34-15.28L41.34-15.28Q41.6-15.21 41.7-15.02 41.8-14.82 41.73-14.5L41.73-14.5Q41.73-14.37 41.67-14.24L41.67-14.24Q41.47-13.46 41.02-11.93 40.56-10.4 39.68-8.38 38.81-6.37 37.38-4.19 35.95-2.02 33.8 0L33.8 0Q32.56 8.78 31.4 14.24 30.23 19.7 29.12 22.3 28.02 24.89 27.04 25.03L27.04 25.03Q26.78 25.03 26.52 25.09L26.52 25.09Q25.61 25.16 24.64 25.16 23.66 25.16 22.69 24.86 21.71 24.57 20.93 23.79 20.15 23.01 19.76 21.58L19.76 21.58Q19.18 19.18 19.89 16.57 20.61 13.97 22.13 11.41 23.66 8.84 25.35 6.66 27.04 4.49 28.41 2.93L28.41 2.93Q28.8 0.26 29.12-1.95L29.12-1.95Q30.16-8.32 30.55-11.77L30.55-11.77Q30.03-11.25 29.41-10.4 28.8-9.55 28.08-8.52L28.08-8.52Q26.98-6.89 25.71-5.27 24.44-3.64 23.27-2.63 22.1-1.63 21.13-1.82L21.13-1.82Q21-1.82 20.93-1.89L20.93-1.89Q20.35-1.95 19.73-2.11 19.11-2.27 18.56-2.6 18.01-2.93 17.75-3.45L17.75-3.45Q17.23-4.62 17.26-6.7 17.29-8.78 17.62-11.08 17.94-13.39 18.36-15.44 18.79-17.48 19.11-18.72L19.11-18.72Q19.3-19.63 19.3-19.7L19.3-19.7 19.57-19.7Q20.09-19.76 21-19.86 21.91-19.96 22.78-19.92 23.66-19.89 24.12-19.57L24.12-19.57Q24.25-19.37 24.28-19.21 24.31-19.05 24.25-18.85L24.25-18.85Q24.18-18.66 24.18-18.46L24.18-18.46Q24.18-18.46 23.73-16.67 23.27-14.88 22.78-12.45 22.3-10.01 22.13-7.9 21.97-5.79 22.49-4.94L22.49-4.94Q22.62-4.68 22.75-4.58 22.88-4.49 22.95-4.42L22.95-4.42Q23.01-4.42 23.08-4.36L23.08-4.36Q23.53-4.62 24.54-5.98 25.55-7.35 26.78-9.17L26.78-9.17Q27.82-10.6 28.8-11.99 29.77-13.39 30.58-14.33 31.4-15.28 31.85-15.41L31.85-15.41Q31.92-15.41 32.63-15.34 33.34-15.28 34.13-15.05 34.91-14.82 35.42-14.43L35.42-14.43Q35.49-14.3 35.49-14.24L35.49-14.24Q35.62-13.97 35.65-13.78 35.69-13.59 35.62-13.33L35.62-13.33Q35.62-13.33 35.1-10.46 34.58-7.61 33.93-2.15Z"
      transform="translate(-0.11559998989105225, 19.931428909301758)"
    />
  </svg>